<?xml version="1.0" encoding="UTF-8" standalone="no"?>
<svg
   width="33.750061mm"
   height="33.750061mm"
   viewBox="0 0 33.750061 33.750061"
   version="1.1"
   id="svg974"
   sodipodi:docname="xyz.aguno.CubeTimer.svg"
   inkscape:version="1.2.2 (732a01da63, 2022-12-09, custom)"
   xmlns:inkscape="http://www.inkscape.org/namespaces/inkscape"
   xmlns:sodipodi="http://sodipodi.sourceforge.net/DTD/sodipodi-0.dtd"
   xmlns="http://www.w3.org/2000/svg"
   xmlns:svg="http://www.w3.org/2000/svg"
   xmlns:rdf="http://www.w3.org/1999/02/22-rdf-syntax-ns#"
   xmlns:cc="http://creativecommons.org/ns#"
   xmlns:dc="http://purl.org/dc/elements/1.1/">
  <sodipodi:namedview
     id="namedview45"
     pagecolor="#ffffff"
     bordercolor="#000000"
     borderopacity="0.25"
     inkscape:showpageshadow="2"
     inkscape:pageopacity="0.0"
     inkscape:pagecheckerboard="0"
     inkscape:deskcolor="#d1d1d1"
     inkscape:document-units="mm"
     showgrid="false"
     inkscape:zoom="2.0297853"
     inkscape:cx="35.471731"
     inkscape:cy="46.063984"
     inkscape:window-width="1440"
     inkscape:window-height="801"
     inkscape:window-x="0"
     inkscape:window-y="0"
     inkscape:window-maximized="1"
     inkscape:current-layer="svg974" />
  <defs
     id="defs968">
    <clipPath
       clipPathUnits="userSpaceOnUse"
       id="clipPath18689">
      <rect
         clip-path="none"
         transform="rotate(45)"
         ry="32.000008"
         rx="32.000008"
         y="123.9986"
         x="486.03726"
         height="362.94299"
         width="362.94299"
         id="rect18691"
         style="display:inline;opacity:1;vector-effect:none;fill:#4a86cf;fill-opacity:1;stroke:none;stroke-width:26.0669;stroke-linecap:butt;stroke-linejoin:miter;stroke-miterlimit:4;stroke-dasharray:none;stroke-dashoffset:0;stroke-opacity:1;marker:none;marker-start:none;marker-mid:none;marker-end:none;paint-order:normal;enable-background:new" />
    </clipPath>
    <clipPath
       clipPathUnits="userSpaceOnUse"
       id="clipPath18689-3">
      <rect
         clip-path="none"
         transform="rotate(45)"
         ry="32.000008"
         rx="32.000008"
         y="123.9986"
         x="486.03726"
         height="362.94299"
         width="362.94299"
         id="rect18691-6"
         style="display:inline;opacity:1;vector-effect:none;fill:#4a86cf;fill-opacity:1;stroke:none;stroke-width:26.0669;stroke-linecap:butt;stroke-linejoin:miter;stroke-miterlimit:4;stroke-dasharray:none;stroke-dashoffset:0;stroke-opacity:1;marker:none;marker-start:none;marker-mid:none;marker-end:none;paint-order:normal;enable-background:new" />
    </clipPath>
  </defs>
  <metadata
     id="metadata971">
    <rdf:RDF>
      <cc:Work
         rdf:about="">
        <dc:format>image/svg+xml</dc:format>
        <dc:type
           rdf:resource="http://purl.org/dc/dcmitype/StillImage" />
        <dc:title />
      </cc:Work>
    </rdf:RDF>
  </metadata>
  <path
     id="path7380"
     style="fill:#cc0000;fill-rule:evenodd;stroke:#000000;stroke-width:0.26412;stroke-linecap:round;stroke-linejoin:round"
     d="M 16.9904,0.70411311 12.852355,2.1335968 16.923554,3.6389252 21.038461,2.1194563 Z" />
  <path
     id="path7378"
     style="fill:#cc0000;fill-rule:evenodd;stroke:#000000;stroke-width:0.26412;stroke-linecap:round;stroke-linejoin:round"
     d="m 21.312273,2.2132984 -4.122618,1.5220395 5.180592,1.9141196 4.051916,-1.6505906 z" />
  <path
     id="path7376"
     style="fill:#cc0000;fill-rule:evenodd;stroke:#000000;stroke-width:0.26412;stroke-linecap:round;stroke-linejoin:round"
     d="M 12.578542,2.2274388 7.4429437,4.0065799 11.475577,5.6494575 16.657454,3.7353379 Z" />
  <path
     id="path7374"
     style="fill:#cc0000;fill-rule:evenodd;stroke:#000000;stroke-width:0.26412;stroke-linecap:round;stroke-linejoin:round"
     d="m 16.923554,3.8330367 -5.196017,1.9179759 5.196017,2.115944 5.196018,-2.115944 z" />
  <path
     id="path7372"
     style="fill:#cc0000;fill-rule:evenodd;stroke:#000000;stroke-width:0.26412;stroke-linecap:round;stroke-linejoin:round"
     d="m 26.681835,4.0888522 -4.055773,1.6544473 5.575243,2.0593817 3.958074,-1.8009949 z" />
  <path
     id="path7370"
     style="fill:#cc0000;fill-rule:evenodd;stroke:#000000;stroke-width:0.26412;stroke-linecap:round;stroke-linejoin:round"
     d="M 7.1807007,4.0965651 1.676161,5.9978298 5.6265227,7.8065377 11.224903,5.7432995 Z" />
  <path
     id="path7368"
     style="fill:#cc0000;fill-rule:evenodd;stroke:#000000;stroke-width:0.26412;stroke-linecap:round;stroke-linejoin:round"
     d="M 11.475577,5.8448545 5.8669127,7.9158057 11.014081,10.27471 16.683164,7.964655 Z" />
  <path
     id="path7366"
     style="fill:#cc0000;fill-rule:evenodd;stroke:#000000;stroke-width:0.26412;stroke-linecap:round;stroke-linejoin:round"
     d="M 22.374102,5.8448545 17.166515,7.964655 22.794463,10.260569 27.96477,7.9080926 Z" />
  <path
     id="path7364"
     style="fill:#fce94f;fill-rule:evenodd;stroke:#000000;stroke-width:0.26412;stroke-linecap:round;stroke-linejoin:round"
     d="m 1.48462,6.1109544 0.563052,6.4043936 3.8038137,2.010533 -0.412647,-6.5805085 0.04499,-0.00386 z" />
  <path
     id="path7362"
     style="fill:#3465a4;fill-rule:evenodd;stroke:#000000;stroke-width:0.26412;stroke-linecap:round;stroke-linejoin:round"
     d="m 32.357347,6.1109544 -4.024922,1.8305615 0.07456,0.00771 -0.615757,6.7039161 3.78196,-1.998962 z" />
  <path
     id="path7360"
     style="fill:#3465a4;fill-rule:evenodd;stroke:#000000;stroke-width:0.26412;stroke-linecap:round;stroke-linejoin:round"
     d="m 28.207732,7.9980782 -5.282147,2.4051828 0.06813,0.0026 -0.244247,6.918598 4.851502,-2.569729 0.618328,-6.7527659 z" />
  <path
     id="path7358"
     style="fill:#fce94f;fill-rule:evenodd;stroke:#000000;stroke-width:0.26412;stroke-linecap:round;stroke-linejoin:round"
     d="m 5.6265227,8.0096478 0.416504,6.6177872 5.0314723,2.659713 -0.221107,-6.881316 h 0.0077 z" />
  <path
     id="path7356"
     style="fill:#cc0000;fill-rule:evenodd;stroke:#000000;stroke-width:0.26412;stroke-linecap:round;stroke-linejoin:round"
     d="m 16.927411,8.0649246 -5.684511,2.3151974 5.624092,2.57744 5.702507,-2.596723 z" />
  <path
     id="path7354"
     style="fill:#3465a4;fill-rule:evenodd;stroke:#000000;stroke-width:0.26412;stroke-linecap:round;stroke-linejoin:round"
     d="m 22.802176,10.458537 -5.837486,2.657142 0.06299,7.239974 5.537963,-2.933527 0.244247,-6.959732 z" />
  <path
     id="path7352"
     style="fill:#fce94f;fill-rule:evenodd;stroke:#000000;stroke-width:0.26412;stroke-linecap:round;stroke-linejoin:round"
     d="m 11.041077,10.48939 0.21725,6.895458 5.589382,2.952808 -0.06299,-7.215549 z" />
  <path
     id="path7350"
     style="fill:#fce94f;fill-rule:evenodd;stroke:#000000;stroke-width:0.26412;stroke-linecap:round;stroke-linejoin:round"
     d="m 2.066955,12.728742 0.524486,5.960894 3.6624097,2.258636 -0.390795,-6.212855 z" />
  <path
     id="path7348"
     style="fill:#3465a4;fill-rule:evenodd;stroke:#000000;stroke-width:0.26412;stroke-linecap:round;stroke-linejoin:round"
     d="m 31.547478,12.871433 -3.774247,1.998963 -0.58105,6.333692 3.6277,-2.266349 z" />
  <path
     id="path7346"
     style="fill:#fce94f;fill-rule:evenodd;stroke:#000000;stroke-width:0.26412;stroke-linecap:round;stroke-linejoin:round"
     d="m 6.0545967,14.836973 0.390794,6.22828 4.8425033,2.990088 -0.209539,-6.558655 z" />
  <path
     id="path7344"
     style="fill:#3465a4;fill-rule:evenodd;stroke:#000000;stroke-width:0.26412;stroke-linecap:round;stroke-linejoin:round"
     d="m 27.58169,14.971952 -4.839932,2.562015 -0.232677,6.59979 4.49156,-2.810117 z" />
  <path
     id="path7342"
     style="fill:#fce94f;fill-rule:evenodd;stroke:#000000;stroke-width:0.26412;stroke-linecap:round;stroke-linejoin:round"
     d="m 11.266041,17.594384 0.209536,6.572797 5.432551,3.353887 -0.06042,-6.973875 z" />
  <path
     id="path7340"
     style="fill:#3465a4;fill-rule:evenodd;stroke:#000000;stroke-width:0.26412;stroke-linecap:round;stroke-linejoin:round"
     d="m 22.55793,17.631665 -5.530249,2.927099 0.06042,6.962304 5.233297,-3.271615 z" />
  <path
     id="path7338"
     style="fill:#fce94f;fill-rule:evenodd;stroke:#000000;stroke-width:0.26412;stroke-linecap:round;stroke-linejoin:round"
     d="m 2.610724,18.912029 0.487208,5.54439 3.5158607,2.250922 -0.349658,-5.540533 z" />
  <path
     id="path7336"
     style="fill:#3465a4;fill-rule:evenodd;stroke:#000000;stroke-width:0.26412;stroke-linecap:round;stroke-linejoin:round"
     d="m 30.78903,19.170416 -3.616132,2.262492 -0.45764,4.981338 3.512005,-2.535019 z" />
  <path
     id="path7334"
     style="fill:#fce94f;fill-rule:evenodd;stroke:#000000;stroke-width:0.26412;stroke-linecap:round;stroke-linejoin:round"
     d="m 6.4595317,21.286359 0.3458,5.54439 4.6663883,2.99009 -0.176113,-5.552103 z" />
  <path
     id="path7332"
     style="fill:#3465a4;fill-rule:evenodd;stroke:#000000;stroke-width:0.26412;stroke-linecap:round;stroke-linejoin:round"
     d="m 26.977502,21.552461 -4.476134,2.802404 -0.183828,5.233298 4.202322,-3.035083 z" />
  <path
     id="path7330"
     style="fill:#fce94f;fill-rule:evenodd;stroke:#000000;stroke-width:0.26412;stroke-linecap:round;stroke-linejoin:round"
     d="m 11.479434,24.385717 0.176113,5.555959 5.301431,3.395023 -0.04499,-5.604809 z" />
  <path
     id="path7319"
     style="fill:#3465a4;fill-rule:evenodd;stroke:#000000;stroke-width:0.26412;stroke-linecap:round;stroke-linejoin:round"
     d="m 22.314969,24.471845 -5.223013,3.267759 0.04499,5.585526 4.994195,-3.600704 z" />
</svg>
